<?xml version="1.0" standalone="no"?>
<!DOCTYPE svg PUBLIC "-//W3C//DTD SVG 20010904//EN"
 "http://www.w3.org/TR/2001/REC-SVG-20010904/DTD/svg10.dtd">
<svg version="1.0" xmlns="http://www.w3.org/2000/svg"
 width="500.000000pt" height="500.000000pt" viewBox="0 0 500.000000 500.000000"
 preserveAspectRatio="xMidYMid meet">

<g transform="translate(0.000000,500.000000) scale(0.100000,-0.100000)"
fill="#000000" stroke="none">
<path d="M1998 4597 c-291 -111 -470 -184 -460 -188 9 -3 108 -30 218 -59
l202 -53 4 -166 c4 -143 8 -174 28 -226 69 -181 220 -305 408 -337 257 -43
521 126 587 377 10 40 15 106 15 201 l0 142 115 36 c63 20 128 39 145 42 l30
7 0 -152 c0 -144 1 -151 20 -151 19 0 20 7 20 159 l0 159 51 17 c28 9 49 18
47 20 -3 3 -925 346 -943 350 -5 2 -225 -79 -487 -178z"/>
<path d="M801 4102 c539 -364 987 -764 1292 -1154 177 -227 275 -400 379 -667
8 -23 12 -19 60 65 125 221 418 641 593 849 357 427 728 750 1075 935 125 66
118 67 -70 8 -633 -200 -1231 -585 -1608 -1033 l-42 -50 -42 50 c-339 402
-868 755 -1520 1014 -73 29 -278 101 -287 101 -3 0 74 -53 170 -118z"/>
<path d="M526 3903 c157 -364 328 -999 475 -1765 l32 -166 56 -7 c85 -10 304
-69 409 -109 348 -133 654 -369 851 -656 32 -47 71 -109 85 -138 15 -30 29
-52 31 -50 2 2 27 39 56 83 296 456 762 763 1312 866 112 21 117 23 117 47 0
37 46 301 90 515 81 394 183 773 309 1142 43 127 82 238 86 248 6 14 -13 8
-82 -27 -688 -345 -1272 -930 -1639 -1641 -97 -188 -141 -287 -199 -449 -29
-81 -44 -114 -48 -100 -3 10 -20 69 -38 129 -140 479 -440 927 -924 1382 -255
239 -565 475 -863 656 -144 88 -136 85 -116 40z"/>
<path d="M3070 739 c-53 -10 -150 -56 -156 -74 -4 -9 17 -56 42 -93 1 -1 24
11 51 28 88 55 173 42 173 -24 0 -31 -24 -63 -148 -195 -109 -116 -112 -120
-112 -165 l0 -46 210 0 210 0 0 55 0 54 -120 3 -119 3 89 97 c113 123 135 165
131 245 -1 29 -48 83 -86 98 -44 19 -114 25 -165 14z"/>
<path d="M674 703 c11 -31 184 -474 203 -520 3 -9 29 -13 77 -13 l72 0 31 83
c17 45 67 173 111 285 l80 202 -72 0 -71 0 -69 -203 c-38 -111 -72 -206 -76
-210 -4 -5 -40 87 -80 202 l-72 211 -74 0 -73 0 13 -37z"/>
<path d="M1410 455 l0 -285 225 0 225 0 0 55 0 55 -155 0 -155 0 0 60 0 60
135 0 135 0 0 55 0 55 -135 0 -135 0 0 60 0 60 150 0 150 0 0 55 0 55 -220 0
-220 0 0 -285z"/>
<path d="M2060 455 l0 -285 70 0 69 0 3 108 3 107 128 3 127 3 0 49 0 50 -130
0 -130 0 0 70 0 70 140 0 140 0 0 55 0 55 -210 0 -210 0 0 -285z"/>
<path d="M3945 722 c-88 -41 -135 -134 -135 -267 0 -175 76 -271 225 -282 82
-7 138 10 190 58 59 55 80 116 80 235 -1 80 -4 98 -30 150 -21 41 -43 68 -73
89 -39 27 -53 30 -130 33 -68 2 -96 -1 -127 -16z m177 -99 c26 -24 42 -81 42
-158 1 -136 -30 -195 -104 -195 -81 0 -116 73 -108 221 5 86 22 122 69 146 28
15 76 8 101 -14z"/>
<path d="M3550 293 c-41 -15 -54 -78 -22 -106 38 -34 95 -15 107 35 5 21 1 33
-19 52 -25 26 -37 29 -66 19z"/>
</g>
</svg>
